<svg xmlns="http://www.w3.org/2000/svg" xmlns:xlink="http://www.w3.org/1999/xlink" width="1920" zoomAndPan="magnify" viewBox="0 0 1440 525.000007" height="700" preserveAspectRatio="xMidYMid meet" version="1.0"><defs><g/><clipPath id="97aec13202"><rect x="0" width="1190" y="0" height="477"/></clipPath><clipPath id="b858b92d6d"><rect x="0" width="1098" y="0" height="77"/></clipPath></defs><g transform="matrix(1, 0, 0, 1, 152, 0.000000000000109615)"><g clip-path="url(#97aec13202)"><g fill="#605e5e" fill-opacity="1"><g transform="translate(0.476788, 370.756957)"><g><path d="M 135.609375 4.578125 C 118.335938 4.578125 102.65625 1.59375 88.5625 -4.375 C 74.46875 -10.34375 62.40625 -19.101562 52.375 -30.65625 C 42.34375 -42.21875 34.597656 -56.566406 29.140625 -73.703125 C 23.679688 -90.847656 20.953125 -110.59375 20.953125 -132.9375 C 20.953125 -155.289062 23.679688 -175.035156 29.140625 -192.171875 C 34.597656 -209.316406 42.34375 -223.664062 52.375 -235.21875 C 62.40625 -246.769531 74.46875 -255.53125 88.5625 -261.5 C 102.65625 -267.46875 118.335938 -270.453125 135.609375 -270.453125 C 152.878906 -270.453125 168.5625 -267.46875 182.65625 -261.5 C 196.75 -255.53125 208.8125 -246.769531 218.84375 -235.21875 C 228.875 -223.664062 236.617188 -209.316406 242.078125 -192.171875 C 247.535156 -175.035156 250.265625 -155.289062 250.265625 -132.9375 C 250.265625 -110.59375 247.535156 -90.847656 242.078125 -73.703125 C 236.617188 -56.566406 228.875 -42.21875 218.84375 -30.65625 C 208.8125 -19.101562 196.75 -10.34375 182.65625 -4.375 C 168.5625 1.59375 152.878906 4.578125 135.609375 4.578125 Z M 135.609375 -33.90625 C 145.765625 -33.90625 155.09375 -35.679688 163.59375 -39.234375 C 172.101562 -42.785156 179.34375 -47.925781 185.3125 -54.65625 C 191.28125 -61.382812 195.914062 -69.570312 199.21875 -79.21875 C 202.519531 -88.875 204.171875 -99.796875 204.171875 -111.984375 L 204.171875 -153.890625 C 204.171875 -166.078125 202.519531 -176.992188 199.21875 -186.640625 C 195.914062 -196.296875 191.28125 -204.488281 185.3125 -211.21875 C 179.34375 -217.945312 172.101562 -223.085938 163.59375 -226.640625 C 155.09375 -230.203125 145.765625 -231.984375 135.609375 -231.984375 C 125.191406 -231.984375 115.789062 -230.203125 107.40625 -226.640625 C 99.03125 -223.085938 91.859375 -217.945312 85.890625 -211.21875 C 79.929688 -204.488281 75.300781 -196.296875 72 -186.640625 C 68.695312 -176.992188 67.046875 -166.078125 67.046875 -153.890625 L 67.046875 -111.984375 C 67.046875 -99.796875 68.695312 -88.875 72 -79.21875 C 75.300781 -69.570312 79.929688 -61.382812 85.890625 -54.65625 C 91.859375 -47.925781 99.03125 -42.785156 107.40625 -39.234375 C 115.789062 -35.679688 125.191406 -33.90625 135.609375 -33.90625 Z M 135.609375 -33.90625 "/></g></g></g><g fill="#605e5e" fill-opacity="1"><g transform="translate(317.410493, 370.756957)"><g><path d="M 75.796875 0 L 32.765625 0 L 32.765625 -265.890625 L 147.421875 -265.890625 C 171.285156 -265.890625 190.070312 -258.710938 203.78125 -244.359375 C 217.5 -230.015625 224.359375 -210.523438 224.359375 -185.890625 C 224.359375 -166.847656 219.976562 -151.039062 211.21875 -138.46875 C 202.457031 -125.894531 189.570312 -117.066406 172.5625 -111.984375 L 230.078125 0 L 182.078125 0 L 128.75 -107.421875 L 75.796875 -107.421875 Z M 144.375 -143.609375 C 155.289062 -143.609375 163.796875 -146.460938 169.890625 -152.171875 C 175.984375 -157.890625 179.03125 -166.082031 179.03125 -176.75 L 179.03125 -195.03125 C 179.03125 -205.695312 175.984375 -213.882812 169.890625 -219.59375 C 163.796875 -225.3125 155.289062 -228.171875 144.375 -228.171875 L 75.796875 -228.171875 L 75.796875 -143.609375 Z M 144.375 -143.609375 "/></g></g></g><g fill="#605e5e" fill-opacity="1"><g transform="translate(607.679175, 370.756957)"><g><path d="M 73.515625 -265.890625 L 73.515625 -102.09375 C 73.515625 -79.488281 77.832031 -62.472656 86.46875 -51.046875 C 95.101562 -39.617188 109.832031 -33.90625 130.65625 -33.90625 C 151.476562 -33.90625 166.207031 -39.617188 174.84375 -51.046875 C 183.476562 -62.472656 187.796875 -79.488281 187.796875 -102.09375 L 187.796875 -265.890625 L 230.078125 -265.890625 L 230.078125 -108.9375 C 230.078125 -89.382812 228.296875 -72.5 224.734375 -58.28125 C 221.179688 -44.0625 215.46875 -32.316406 207.59375 -23.046875 C 199.726562 -13.773438 189.507812 -6.851562 176.9375 -2.28125 C 164.363281 2.289062 148.9375 4.578125 130.65625 4.578125 C 112.375 4.578125 96.945312 2.289062 84.375 -2.28125 C 71.800781 -6.851562 61.578125 -13.773438 53.703125 -23.046875 C 45.835938 -32.316406 40.125 -44.0625 36.5625 -58.28125 C 33.007812 -72.5 31.234375 -89.382812 31.234375 -108.9375 L 31.234375 -265.890625 Z M 73.515625 -265.890625 "/></g></g></g><g fill="#605e5e" fill-opacity="1"><g transform="translate(914.708828, 370.756957)"><g><path d="M 112.375 4.578125 C 90.019531 4.578125 71.035156 0.515625 55.421875 -7.609375 C 39.804688 -15.742188 26.410156 -26.664062 15.234375 -40.375 L 44.953125 -68.1875 C 54.347656 -56.757812 64.691406 -48.125 75.984375 -42.28125 C 87.285156 -36.4375 100.175781 -33.515625 114.65625 -33.515625 C 131.664062 -33.515625 144.488281 -37.320312 153.125 -44.9375 C 161.757812 -52.5625 166.078125 -62.847656 166.078125 -75.796875 C 166.078125 -86.210938 163.03125 -94.46875 156.9375 -100.5625 C 150.84375 -106.65625 140.050781 -111.226562 124.5625 -114.28125 L 100.9375 -118.46875 C 75.039062 -123.289062 55.613281 -131.796875 42.65625 -143.984375 C 29.707031 -156.171875 23.234375 -172.929688 23.234375 -194.265625 C 23.234375 -205.953125 25.453125 -216.554688 29.890625 -226.078125 C 34.335938 -235.597656 40.5625 -243.59375 48.5625 -250.0625 C 56.5625 -256.539062 66.273438 -261.554688 77.703125 -265.109375 C 89.128906 -268.671875 101.957031 -270.453125 116.1875 -270.453125 C 136.25 -270.453125 153.640625 -266.957031 168.359375 -259.96875 C 183.085938 -252.988281 195.660156 -242.898438 206.078125 -229.703125 L 175.984375 -203.03125 C 169.128906 -211.914062 160.75 -219.023438 150.84375 -224.359375 C 140.9375 -229.691406 128.617188 -232.359375 113.890625 -232.359375 C 98.660156 -232.359375 86.851562 -229.3125 78.46875 -223.21875 C 70.09375 -217.125 65.90625 -208.238281 65.90625 -196.5625 C 65.90625 -185.382812 69.332031 -177.066406 76.1875 -171.609375 C 83.039062 -166.148438 93.707031 -162.019531 108.1875 -159.21875 L 131.796875 -154.265625 C 158.460938 -149.191406 177.953125 -140.5625 190.265625 -128.375 C 202.585938 -116.1875 208.75 -99.425781 208.75 -78.09375 C 208.75 -65.644531 206.585938 -54.34375 202.265625 -44.1875 C 197.953125 -34.03125 191.664062 -25.332031 183.40625 -18.09375 C 175.15625 -10.851562 165.0625 -5.265625 153.125 -1.328125 C 141.195312 2.609375 127.613281 4.578125 112.375 4.578125 Z M 112.375 4.578125 "/></g></g></g></g></g><g transform="matrix(1, 0, 0, 1, 178, 414)"><g clip-path="url(#b858b92d6d)"><g fill="#6b6969" fill-opacity="1"><g transform="translate(2.405315, 59.704495)"><g><path d="M 2.28125 0 L 10.4375 -40.71875 L 34.40625 -40.71875 L 33.53125 -36.515625 L 14.34375 -36.515625 L 11.609375 -22.75 L 28.875 -22.75 L 28.0625 -18.546875 L 10.734375 -18.546875 L 7.875 -4.203125 L 28.0625 -4.203125 L 27.234375 0 Z M 2.28125 0 "/></g></g></g><g fill="#6b6969" fill-opacity="1"><g transform="translate(35.939735, 59.704495)"><g><path d="M 2.09375 0 L 8.171875 -30.09375 L 12.65625 -30.09375 L 11.4375 -24.140625 L 11.71875 -24.140625 C 12.769531 -26.398438 14.023438 -28.070312 15.484375 -29.15625 C 16.941406 -30.25 18.757812 -30.796875 20.9375 -30.796875 C 23.539062 -30.796875 25.484375 -30.054688 26.765625 -28.578125 C 28.054688 -27.097656 28.703125 -25.054688 28.703125 -22.453125 C 28.703125 -21.910156 28.671875 -21.304688 28.609375 -20.640625 C 28.546875 -19.984375 28.441406 -19.285156 28.296875 -18.546875 L 25.375 -3.96875 L 29.625 -3.96875 L 28.875 0 L 24.609375 0 C 23.484375 0 22.578125 -0.269531 21.890625 -0.8125 C 21.210938 -1.363281 20.875 -2.222656 20.875 -3.390625 C 20.875 -3.578125 20.875 -3.75 20.875 -3.90625 C 20.875 -4.0625 20.914062 -4.296875 21 -4.609375 L 23.796875 -18.546875 C 23.910156 -19.128906 23.988281 -19.703125 24.03125 -20.265625 C 24.070312 -20.828125 24.09375 -21.285156 24.09375 -21.640625 C 24.09375 -23.347656 23.734375 -24.617188 23.015625 -25.453125 C 22.296875 -26.296875 21.117188 -26.71875 19.484375 -26.71875 C 17.378906 -26.71875 15.53125 -25.921875 13.9375 -24.328125 C 12.925781 -23.316406 12.070312 -22.109375 11.375 -20.703125 C 10.675781 -19.304688 10.207031 -18.003906 9.96875 -16.796875 L 6.59375 0 Z M 2.09375 0 "/></g></g></g><g fill="#6b6969" fill-opacity="1"><g transform="translate(69.474156, 59.704495)"><g><path d="M -1.640625 0 L 12.015625 -15.578125 L 4.671875 -30.09375 L 9.5625 -30.09375 L 14.984375 -18.546875 L 15.28125 -18.546875 L 25.078125 -30.09375 L 30.21875 -30.09375 L 17.15625 -15.171875 L 25.078125 0 L 20.1875 0 L 14.171875 -12.25 L 13.875 -12.25 L 3.5 0 Z M -1.640625 0 "/></g></g></g><g fill="#6b6969" fill-opacity="1"><g transform="translate(98.167954, 59.704495)"><g><path d="M 14.234375 0.703125 C 10.617188 0.703125 7.816406 -0.363281 5.828125 -2.5 C 3.847656 -4.644531 2.859375 -7.78125 2.859375 -11.90625 C 2.859375 -14.382812 3.238281 -16.757812 4 -19.03125 C 4.757812 -21.3125 5.828125 -23.328125 7.203125 -25.078125 C 8.585938 -26.828125 10.238281 -28.21875 12.15625 -29.25 C 14.082031 -30.28125 16.234375 -30.796875 18.609375 -30.796875 C 19.890625 -30.796875 21.113281 -30.628906 22.28125 -30.296875 C 23.445312 -29.972656 24.476562 -29.476562 25.375 -28.8125 C 26.269531 -28.15625 26.976562 -27.320312 27.5 -26.3125 C 28.03125 -25.300781 28.296875 -24.113281 28.296875 -22.75 C 28.296875 -19.445312 26.59375 -16.992188 23.1875 -15.390625 C 19.78125 -13.796875 14.5625 -12.960938 7.53125 -12.890625 C 7.445312 -12.460938 7.394531 -12.023438 7.375 -11.578125 C 7.351562 -11.128906 7.34375 -10.75 7.34375 -10.4375 C 7.34375 -8.300781 7.957031 -6.582031 9.1875 -5.28125 C 10.414062 -3.976562 12.195312 -3.328125 14.53125 -3.328125 C 16.425781 -3.328125 18.140625 -3.765625 19.671875 -4.640625 C 21.210938 -5.515625 22.566406 -6.671875 23.734375 -8.109375 L 26.65625 -5.484375 C 24.789062 -3.191406 22.796875 -1.585938 20.671875 -0.671875 C 18.554688 0.242188 16.410156 0.703125 14.234375 0.703125 Z M 18.140625 -26.953125 C 16.972656 -26.953125 15.851562 -26.738281 14.78125 -26.3125 C 13.71875 -25.882812 12.765625 -25.289062 11.921875 -24.53125 C 11.085938 -23.769531 10.367188 -22.832031 9.765625 -21.71875 C 9.160156 -20.613281 8.722656 -19.398438 8.453125 -18.078125 L 8.109375 -16.390625 C 11.335938 -16.503906 13.960938 -16.707031 15.984375 -17 C 18.003906 -17.289062 19.585938 -17.695312 20.734375 -18.21875 C 21.878906 -18.75 22.65625 -19.382812 23.0625 -20.125 C 23.476562 -20.863281 23.6875 -21.757812 23.6875 -22.8125 C 23.6875 -23.625 23.53125 -24.289062 23.21875 -24.8125 C 22.90625 -25.34375 22.492188 -25.765625 21.984375 -26.078125 C 21.484375 -26.390625 20.890625 -26.613281 20.203125 -26.75 C 19.523438 -26.882812 18.835938 -26.953125 18.140625 -26.953125 Z M 18.140625 -26.953125 "/></g></g></g><g fill="#6b6969" fill-opacity="1"><g transform="translate(128.553078, 59.704495)"><g><path d="M 2.09375 0 L 8.171875 -30.09375 L 12.65625 -30.09375 L 11.375 -24.09375 L 11.671875 -24.09375 C 12.054688 -24.832031 12.519531 -25.5625 13.0625 -26.28125 C 13.601562 -27 14.234375 -27.640625 14.953125 -28.203125 C 15.679688 -28.765625 16.507812 -29.21875 17.4375 -29.5625 C 18.375 -29.914062 19.460938 -30.09375 20.703125 -30.09375 L 22.578125 -30.09375 L 21.703125 -25.484375 L 19.59375 -25.484375 C 18.195312 -25.484375 16.960938 -25.28125 15.890625 -24.875 C 14.828125 -24.46875 13.90625 -23.914062 13.125 -23.21875 C 12.34375 -22.519531 11.707031 -21.710938 11.21875 -20.796875 C 10.738281 -19.878906 10.398438 -18.914062 10.203125 -17.90625 L 6.59375 0 Z M 2.09375 0 "/></g></g></g><g fill="#6b6969" fill-opacity="1"><g transform="translate(149.023661, 59.704495)"><g><path d="M 26.953125 2.15625 C 26.953125 3.476562 26.695312 4.75 26.1875 5.96875 C 25.6875 7.195312 24.832031 8.285156 23.625 9.234375 C 22.414062 10.191406 20.8125 10.953125 18.8125 11.515625 C 16.8125 12.078125 14.289062 12.359375 11.25 12.359375 C 3.164062 12.359375 -0.875 10.144531 -0.875 5.71875 C -0.875 4.164062 -0.378906 2.8125 0.609375 1.65625 C 1.597656 0.507812 3.085938 -0.351562 5.078125 -0.9375 L 5.1875 -1.40625 C 3.550781 -2.144531 2.734375 -3.367188 2.734375 -5.078125 C 2.734375 -6.515625 3.226562 -7.71875 4.21875 -8.6875 C 5.21875 -9.664062 6.75 -10.367188 8.8125 -10.796875 L 8.859375 -11.203125 C 6.140625 -12.640625 4.78125 -15.164062 4.78125 -18.78125 C 4.78125 -20.488281 5.09375 -22.082031 5.71875 -23.5625 C 6.34375 -25.039062 7.21875 -26.3125 8.34375 -27.375 C 9.46875 -28.445312 10.804688 -29.285156 12.359375 -29.890625 C 13.921875 -30.492188 15.632812 -30.796875 17.5 -30.796875 C 19.71875 -30.796875 21.582031 -30.367188 23.09375 -29.515625 L 23.21875 -30.21875 C 23.40625 -31.414062 23.828125 -32.375 24.484375 -33.09375 C 25.148438 -33.820312 26.109375 -34.1875 27.359375 -34.1875 L 31.609375 -34.1875 L 30.859375 -30.15625 L 25.671875 -30.15625 L 25.203125 -27.765625 C 26.441406 -26.210938 27.0625 -24.285156 27.0625 -21.984375 C 27.0625 -20.273438 26.738281 -18.703125 26.09375 -17.265625 C 25.457031 -15.828125 24.566406 -14.570312 23.421875 -13.5 C 22.273438 -12.4375 20.90625 -11.601562 19.3125 -11 C 17.71875 -10.394531 15.96875 -10.09375 14.0625 -10.09375 C 13.632812 -10.09375 13.253906 -10.101562 12.921875 -10.125 C 12.585938 -10.144531 12.207031 -10.191406 11.78125 -10.265625 C 10.382812 -9.992188 9.238281 -9.59375 8.34375 -9.0625 C 7.445312 -8.539062 7 -7.773438 7 -6.765625 C 7 -5.328125 8.320312 -4.609375 10.96875 -4.609375 L 17.671875 -4.609375 C 21.015625 -4.609375 23.394531 -4.023438 24.8125 -2.859375 C 26.238281 -1.691406 26.953125 -0.0195312 26.953125 2.15625 Z M 22.28125 3.09375 C 22.28125 2.039062 21.9375 1.203125 21.25 0.578125 C 20.570312 -0.0351562 19.300781 -0.34375 17.4375 -0.34375 L 7.109375 -0.34375 C 4.773438 0.664062 3.609375 2.238281 3.609375 4.375 C 3.609375 5 3.71875 5.570312 3.9375 6.09375 C 4.15625 6.613281 4.503906 7.066406 4.984375 7.453125 C 5.472656 7.847656 6.113281 8.148438 6.90625 8.359375 C 7.707031 8.578125 8.710938 8.6875 9.921875 8.6875 L 12.65625 8.6875 C 16.039062 8.6875 18.488281 8.171875 20 7.140625 C 21.519531 6.109375 22.28125 4.757812 22.28125 3.09375 Z M 14.75 -13.65625 C 16.894531 -13.65625 18.539062 -14.160156 19.6875 -15.171875 C 20.832031 -16.179688 21.582031 -17.5625 21.9375 -19.3125 C 22.125 -20.351562 22.253906 -21.066406 22.328125 -21.453125 C 22.410156 -21.847656 22.453125 -22.222656 22.453125 -22.578125 C 22.453125 -23.972656 22.003906 -25.085938 21.109375 -25.921875 C 20.210938 -26.765625 18.832031 -27.1875 16.96875 -27.1875 C 14.832031 -27.1875 13.191406 -26.671875 12.046875 -25.640625 C 10.898438 -24.609375 10.148438 -23.21875 9.796875 -21.46875 C 9.597656 -20.414062 9.460938 -19.691406 9.390625 -19.296875 C 9.316406 -18.910156 9.28125 -18.546875 9.28125 -18.203125 C 9.28125 -16.796875 9.722656 -15.6875 10.609375 -14.875 C 11.503906 -14.0625 12.882812 -13.65625 14.75 -13.65625 Z M 14.75 -13.65625 "/></g></g></g><g fill="#6b6969" fill-opacity="1"><g transform="translate(179.000519, 59.704495)"><g><path d="M 12.3125 -30.09375 L 8.578125 -11.546875 C 8.460938 -10.960938 8.382812 -10.390625 8.34375 -9.828125 C 8.300781 -9.265625 8.28125 -8.804688 8.28125 -8.453125 C 8.28125 -6.785156 8.617188 -5.523438 9.296875 -4.671875 C 9.984375 -3.816406 11.144531 -3.390625 12.78125 -3.390625 C 14.832031 -3.390625 16.640625 -4.1875 18.203125 -5.78125 C 19.285156 -6.90625 20.15625 -8.15625 20.8125 -9.53125 C 21.476562 -10.914062 21.929688 -12.171875 22.171875 -13.296875 L 25.546875 -30.09375 L 30.03125 -30.09375 L 24.796875 -3.96875 L 29.046875 -3.96875 L 28.296875 0 L 24.203125 0 C 22.921875 0 21.957031 -0.335938 21.3125 -1.015625 C 20.675781 -1.703125 20.359375 -2.585938 20.359375 -3.671875 C 20.359375 -4.066406 20.4375 -4.628906 20.59375 -5.359375 L 20.703125 -5.953125 L 20.421875 -5.953125 C 19.367188 -3.660156 18.125 -1.976562 16.6875 -0.90625 C 15.25 0.164062 13.476562 0.703125 11.375 0.703125 C 8.8125 0.703125 6.882812 -0.0351562 5.59375 -1.515625 C 4.3125 -2.992188 3.671875 -5.035156 3.671875 -7.640625 C 3.671875 -8.179688 3.695312 -8.78125 3.75 -9.4375 C 3.8125 -10.101562 3.921875 -10.804688 4.078125 -11.546875 L 7.8125 -30.09375 Z M 12.3125 -30.09375 "/></g></g></g><g fill="#6b6969" fill-opacity="1"><g transform="translate(212.36, 59.704495)"><g><path d="M 14.234375 0.703125 C 10.617188 0.703125 7.816406 -0.363281 5.828125 -2.5 C 3.847656 -4.644531 2.859375 -7.78125 2.859375 -11.90625 C 2.859375 -14.382812 3.238281 -16.757812 4 -19.03125 C 4.757812 -21.3125 5.828125 -23.328125 7.203125 -25.078125 C 8.585938 -26.828125 10.238281 -28.21875 12.15625 -29.25 C 14.082031 -30.28125 16.234375 -30.796875 18.609375 -30.796875 C 19.890625 -30.796875 21.113281 -30.628906 22.28125 -30.296875 C 23.445312 -29.972656 24.476562 -29.476562 25.375 -28.8125 C 26.269531 -28.15625 26.976562 -27.320312 27.5 -26.3125 C 28.03125 -25.300781 28.296875 -24.113281 28.296875 -22.75 C 28.296875 -19.445312 26.59375 -16.992188 23.1875 -15.390625 C 19.78125 -13.796875 14.5625 -12.960938 7.53125 -12.890625 C 7.445312 -12.460938 7.394531 -12.023438 7.375 -11.578125 C 7.351562 -11.128906 7.34375 -10.75 7.34375 -10.4375 C 7.34375 -8.300781 7.957031 -6.582031 9.1875 -5.28125 C 10.414062 -3.976562 12.195312 -3.328125 14.53125 -3.328125 C 16.425781 -3.328125 18.140625 -3.765625 19.671875 -4.640625 C 21.210938 -5.515625 22.566406 -6.671875 23.734375 -8.109375 L 26.65625 -5.484375 C 24.789062 -3.191406 22.796875 -1.585938 20.671875 -0.671875 C 18.554688 0.242188 16.410156 0.703125 14.234375 0.703125 Z M 18.140625 -26.953125 C 16.972656 -26.953125 15.851562 -26.738281 14.78125 -26.3125 C 13.71875 -25.882812 12.765625 -25.289062 11.921875 -24.53125 C 11.085938 -23.769531 10.367188 -22.832031 9.765625 -21.71875 C 9.160156 -20.613281 8.722656 -19.398438 8.453125 -18.078125 L 8.109375 -16.390625 C 11.335938 -16.503906 13.960938 -16.707031 15.984375 -17 C 18.003906 -17.289062 19.585938 -17.695312 20.734375 -18.21875 C 21.878906 -18.75 22.65625 -19.382812 23.0625 -20.125 C 23.476562 -20.863281 23.6875 -21.757812 23.6875 -22.8125 C 23.6875 -23.625 23.53125 -24.289062 23.21875 -24.8125 C 22.90625 -25.34375 22.492188 -25.765625 21.984375 -26.078125 C 21.484375 -26.390625 20.890625 -26.613281 20.203125 -26.75 C 19.523438 -26.882812 18.835938 -26.953125 18.140625 -26.953125 Z M 18.140625 -26.953125 "/></g></g></g><g fill="#6b6969" fill-opacity="1"><g transform="translate(242.745124, 59.704495)"><g/></g></g><g fill="#6b6969" fill-opacity="1"><g transform="translate(257.092147, 59.704495)"><g><path d="M 13.703125 0.703125 C 12.109375 0.703125 10.648438 0.441406 9.328125 -0.078125 C 8.003906 -0.609375 6.863281 -1.390625 5.90625 -2.421875 C 4.957031 -3.453125 4.210938 -4.734375 3.671875 -6.265625 C 3.128906 -7.804688 2.859375 -9.609375 2.859375 -11.671875 C 2.859375 -14.191406 3.238281 -16.609375 4 -18.921875 C 4.757812 -21.234375 5.816406 -23.265625 7.171875 -25.015625 C 8.535156 -26.765625 10.171875 -28.164062 12.078125 -29.21875 C 13.984375 -30.269531 16.082031 -30.796875 18.375 -30.796875 C 19.925781 -30.796875 21.375 -30.53125 22.71875 -30 C 24.0625 -29.476562 25.207031 -28.703125 26.15625 -27.671875 C 27.113281 -26.640625 27.863281 -25.347656 28.40625 -23.796875 C 28.945312 -22.242188 29.21875 -20.457031 29.21875 -18.4375 C 29.21875 -15.90625 28.835938 -13.484375 28.078125 -11.171875 C 27.328125 -8.859375 26.269531 -6.828125 24.90625 -5.078125 C 23.539062 -3.328125 21.90625 -1.925781 20 -0.875 C 18.101562 0.175781 16.003906 0.703125 13.703125 0.703125 Z M 14.296875 -3.328125 C 16.472656 -3.328125 18.414062 -4.125 20.125 -5.71875 C 21.832031 -7.3125 23 -9.644531 23.625 -12.71875 L 24.5 -17.09375 C 24.695312 -18.0625 24.796875 -18.9375 24.796875 -19.71875 C 24.796875 -21.8125 24.203125 -23.507812 23.015625 -24.8125 C 21.828125 -26.113281 20.085938 -26.765625 17.796875 -26.765625 C 15.617188 -26.765625 13.671875 -25.96875 11.953125 -24.375 C 10.242188 -22.78125 9.078125 -20.445312 8.453125 -17.375 L 7.578125 -13 C 7.390625 -12.03125 7.296875 -11.15625 7.296875 -10.375 C 7.296875 -8.28125 7.882812 -6.582031 9.0625 -5.28125 C 10.25 -3.976562 11.992188 -3.328125 14.296875 -3.328125 Z M 14.296875 -3.328125 "/></g></g></g><g fill="#6b6969" fill-opacity="1"><g transform="translate(289.751774, 59.704495)"><g/></g></g><g fill="#6b6969" fill-opacity="1"><g transform="translate(304.098797, 59.704495)"><g><path d="M 12.015625 -37.15625 C 11.117188 -37.15625 10.484375 -37.359375 10.109375 -37.765625 C 9.742188 -38.171875 9.5625 -38.648438 9.5625 -39.203125 C 9.5625 -39.316406 9.570312 -39.476562 9.59375 -39.6875 C 9.613281 -39.90625 9.679688 -40.285156 9.796875 -40.828125 C 9.953125 -41.566406 10.269531 -42.140625 10.75 -42.546875 C 11.238281 -42.953125 11.972656 -43.15625 12.953125 -43.15625 C 13.847656 -43.15625 14.476562 -42.953125 14.84375 -42.546875 C 15.21875 -42.140625 15.40625 -41.664062 15.40625 -41.125 C 15.40625 -41.007812 15.394531 -40.84375 15.375 -40.625 C 15.351562 -40.414062 15.285156 -40.035156 15.171875 -39.484375 C 15.015625 -38.742188 14.691406 -38.171875 14.203125 -37.765625 C 13.710938 -37.359375 12.984375 -37.15625 12.015625 -37.15625 Z M 7.0625 0 C 5.695312 0 4.671875 -0.335938 3.984375 -1.015625 C 3.304688 -1.703125 2.96875 -2.585938 2.96875 -3.671875 C 2.96875 -4.023438 3.03125 -4.492188 3.15625 -5.078125 L 8.171875 -30.09375 L 12.65625 -30.09375 L 7.40625 -3.96875 L 11.671875 -3.96875 L 10.90625 0 Z M 7.0625 0 "/></g></g></g><g fill="#6b6969" fill-opacity="1"><g transform="translate(320.078793, 59.704495)"><g><path d="M 2.09375 0 L 8.171875 -30.09375 L 12.65625 -30.09375 L 11.4375 -24.140625 L 11.71875 -24.140625 C 12.769531 -26.398438 14.023438 -28.070312 15.484375 -29.15625 C 16.941406 -30.25 18.757812 -30.796875 20.9375 -30.796875 C 23.539062 -30.796875 25.484375 -30.054688 26.765625 -28.578125 C 28.054688 -27.097656 28.703125 -25.054688 28.703125 -22.453125 C 28.703125 -21.910156 28.671875 -21.304688 28.609375 -20.640625 C 28.546875 -19.984375 28.441406 -19.285156 28.296875 -18.546875 L 25.375 -3.96875 L 29.625 -3.96875 L 28.875 0 L 24.609375 0 C 23.484375 0 22.578125 -0.269531 21.890625 -0.8125 C 21.210938 -1.363281 20.875 -2.222656 20.875 -3.390625 C 20.875 -3.578125 20.875 -3.75 20.875 -3.90625 C 20.875 -4.0625 20.914062 -4.296875 21 -4.609375 L 23.796875 -18.546875 C 23.910156 -19.128906 23.988281 -19.703125 24.03125 -20.265625 C 24.070312 -20.828125 24.09375 -21.285156 24.09375 -21.640625 C 24.09375 -23.347656 23.734375 -24.617188 23.015625 -25.453125 C 22.296875 -26.296875 21.117188 -26.71875 19.484375 -26.71875 C 17.378906 -26.71875 15.53125 -25.921875 13.9375 -24.328125 C 12.925781 -23.316406 12.070312 -22.109375 11.375 -20.703125 C 10.675781 -19.304688 10.207031 -18.003906 9.96875 -16.796875 L 6.59375 0 Z M 2.09375 0 "/></g></g></g><g fill="#6b6969" fill-opacity="1"><g transform="translate(353.029976, 59.704495)"><g><path d="M 8.515625 0 L 3.90625 -30.09375 L 8.28125 -30.09375 L 10.5 -15.21875 L 11.71875 -4.265625 L 12.015625 -4.265625 L 17.4375 -15.21875 L 25.484375 -30.09375 L 30.265625 -30.09375 L 13.828125 0 Z M 8.515625 0 "/></g></g></g><g fill="#6b6969" fill-opacity="1"><g transform="translate(381.840452, 59.704495)"><g><path d="M 12.015625 -37.15625 C 11.117188 -37.15625 10.484375 -37.359375 10.109375 -37.765625 C 9.742188 -38.171875 9.5625 -38.648438 9.5625 -39.203125 C 9.5625 -39.316406 9.570312 -39.476562 9.59375 -39.6875 C 9.613281 -39.90625 9.679688 -40.285156 9.796875 -40.828125 C 9.953125 -41.566406 10.269531 -42.140625 10.75 -42.546875 C 11.238281 -42.953125 11.972656 -43.15625 12.953125 -43.15625 C 13.847656 -43.15625 14.476562 -42.953125 14.84375 -42.546875 C 15.21875 -42.140625 15.40625 -41.664062 15.40625 -41.125 C 15.40625 -41.007812 15.394531 -40.84375 15.375 -40.625 C 15.351562 -40.414062 15.285156 -40.035156 15.171875 -39.484375 C 15.015625 -38.742188 14.691406 -38.171875 14.203125 -37.765625 C 13.710938 -37.359375 12.984375 -37.15625 12.015625 -37.15625 Z M 7.0625 0 C 5.695312 0 4.671875 -0.335938 3.984375 -1.015625 C 3.304688 -1.703125 2.96875 -2.585938 2.96875 -3.671875 C 2.96875 -4.023438 3.03125 -4.492188 3.15625 -5.078125 L 8.171875 -30.09375 L 12.65625 -30.09375 L 7.40625 -3.96875 L 11.671875 -3.96875 L 10.90625 0 Z M 7.0625 0 "/></g></g></g><g fill="#6b6969" fill-opacity="1"><g transform="translate(397.820447, 59.704495)"><g><path d="M 12.1875 0.703125 C 9.851562 0.703125 7.675781 0.226562 5.65625 -0.71875 C 3.632812 -1.675781 2.019531 -3.03125 0.8125 -4.78125 L 3.90625 -7.53125 C 4.957031 -6.125 6.160156 -5.050781 7.515625 -4.3125 C 8.878906 -3.570312 10.4375 -3.203125 12.1875 -3.203125 C 14.175781 -3.203125 15.8125 -3.675781 17.09375 -4.625 C 18.375 -5.582031 19.015625 -6.992188 19.015625 -8.859375 C 19.015625 -9.867188 18.710938 -10.734375 18.109375 -11.453125 C 17.503906 -12.179688 16.328125 -12.71875 14.578125 -13.0625 L 12.3125 -13.53125 C 11.175781 -13.757812 10.113281 -14.054688 9.125 -14.421875 C 8.132812 -14.796875 7.28125 -15.285156 6.5625 -15.890625 C 5.84375 -16.492188 5.28125 -17.234375 4.875 -18.109375 C 4.46875 -18.984375 4.265625 -20.046875 4.265625 -21.296875 C 4.265625 -22.535156 4.484375 -23.726562 4.921875 -24.875 C 5.367188 -26.019531 6.0625 -27.03125 7 -27.90625 C 7.9375 -28.78125 9.101562 -29.476562 10.5 -30 C 11.894531 -30.53125 13.53125 -30.796875 15.40625 -30.796875 C 17.613281 -30.796875 19.515625 -30.414062 21.109375 -29.65625 C 22.703125 -28.894531 24.066406 -27.796875 25.203125 -26.359375 L 22.109375 -23.625 C 21.441406 -24.550781 20.546875 -25.328125 19.421875 -25.953125 C 18.296875 -26.578125 16.835938 -26.890625 15.046875 -26.890625 C 12.828125 -26.890625 11.203125 -26.398438 10.171875 -25.421875 C 9.140625 -24.453125 8.625 -23.210938 8.625 -21.703125 C 8.625 -20.648438 8.925781 -19.78125 9.53125 -19.09375 C 10.132812 -18.414062 11.289062 -17.90625 13 -17.5625 L 15.28125 -17.09375 C 16.488281 -16.851562 17.585938 -16.539062 18.578125 -16.15625 C 19.566406 -15.769531 20.410156 -15.265625 21.109375 -14.640625 C 21.816406 -14.015625 22.363281 -13.253906 22.75 -12.359375 C 23.132812 -11.472656 23.328125 -10.40625 23.328125 -9.15625 C 23.328125 -7.632812 23.046875 -6.257812 22.484375 -5.03125 C 21.921875 -3.8125 21.144531 -2.785156 20.15625 -1.953125 C 19.164062 -1.117188 17.988281 -0.46875 16.625 0 C 15.257812 0.46875 13.78125 0.703125 12.1875 0.703125 Z M 12.1875 0.703125 "/></g></g></g><g fill="#6b6969" fill-opacity="1"><g transform="translate(425.872745, 59.704495)"><g><path d="M 7 0 C 5.632812 0 4.617188 -0.335938 3.953125 -1.015625 C 3.296875 -1.703125 2.96875 -2.585938 2.96875 -3.671875 C 2.96875 -3.984375 3.03125 -4.429688 3.15625 -5.015625 L 8.171875 -30.09375 L 12.65625 -30.09375 L 7.40625 -3.96875 L 11.671875 -3.96875 L 10.90625 0 Z M 12.359375 -34.125 L 9.5625 -35.578125 L 15.625 -45.5 L 19.59375 -43.390625 Z M 12.359375 -34.125 "/></g></g></g><g fill="#6b6969" fill-opacity="1"><g transform="translate(441.852741, 59.704495)"><g><path d="M 8.515625 0 L 3.90625 -30.09375 L 8.28125 -30.09375 L 10.5 -15.21875 L 11.71875 -4.265625 L 12.015625 -4.265625 L 17.4375 -15.21875 L 25.484375 -30.09375 L 30.265625 -30.09375 L 13.828125 0 Z M 8.515625 0 "/></g></g></g><g fill="#6b6969" fill-opacity="1"><g transform="translate(470.25495, 59.704495)"><g><path d="M 14.234375 0.703125 C 10.617188 0.703125 7.816406 -0.363281 5.828125 -2.5 C 3.847656 -4.644531 2.859375 -7.78125 2.859375 -11.90625 C 2.859375 -14.382812 3.238281 -16.757812 4 -19.03125 C 4.757812 -21.3125 5.828125 -23.328125 7.203125 -25.078125 C 8.585938 -26.828125 10.238281 -28.21875 12.15625 -29.25 C 14.082031 -30.28125 16.234375 -30.796875 18.609375 -30.796875 C 19.890625 -30.796875 21.113281 -30.628906 22.28125 -30.296875 C 23.445312 -29.972656 24.476562 -29.476562 25.375 -28.8125 C 26.269531 -28.15625 26.976562 -27.320312 27.5 -26.3125 C 28.03125 -25.300781 28.296875 -24.113281 28.296875 -22.75 C 28.296875 -19.445312 26.59375 -16.992188 23.1875 -15.390625 C 19.78125 -13.796875 14.5625 -12.960938 7.53125 -12.890625 C 7.445312 -12.460938 7.394531 -12.023438 7.375 -11.578125 C 7.351562 -11.128906 7.34375 -10.75 7.34375 -10.4375 C 7.34375 -8.300781 7.957031 -6.582031 9.1875 -5.28125 C 10.414062 -3.976562 12.195312 -3.328125 14.53125 -3.328125 C 16.425781 -3.328125 18.140625 -3.765625 19.671875 -4.640625 C 21.210938 -5.515625 22.566406 -6.671875 23.734375 -8.109375 L 26.65625 -5.484375 C 24.789062 -3.191406 22.796875 -1.585938 20.671875 -0.671875 C 18.554688 0.242188 16.410156 0.703125 14.234375 0.703125 Z M 18.140625 -26.953125 C 16.972656 -26.953125 15.851562 -26.738281 14.78125 -26.3125 C 13.71875 -25.882812 12.765625 -25.289062 11.921875 -24.53125 C 11.085938 -23.769531 10.367188 -22.832031 9.765625 -21.71875 C 9.160156 -20.613281 8.722656 -19.398438 8.453125 -18.078125 L 8.109375 -16.390625 C 11.335938 -16.503906 13.960938 -16.707031 15.984375 -17 C 18.003906 -17.289062 19.585938 -17.695312 20.734375 -18.21875 C 21.878906 -18.75 22.65625 -19.382812 23.0625 -20.125 C 23.476562 -20.863281 23.6875 -21.757812 23.6875 -22.8125 C 23.6875 -23.625 23.53125 -24.289062 23.21875 -24.8125 C 22.90625 -25.34375 22.492188 -25.765625 21.984375 -26.078125 C 21.484375 -26.390625 20.890625 -26.613281 20.203125 -26.75 C 19.523438 -26.882812 18.835938 -26.953125 18.140625 -26.953125 Z M 18.140625 -26.953125 "/></g></g></g><g fill="#6b6969" fill-opacity="1"><g transform="translate(500.640075, 59.704495)"><g><path d="M 7.0625 0 C 5.695312 0 4.671875 -0.335938 3.984375 -1.015625 C 3.304688 -1.703125 2.96875 -2.585938 2.96875 -3.671875 C 2.96875 -4.023438 3.03125 -4.492188 3.15625 -5.078125 L 10.796875 -43.15625 L 15.28125 -43.15625 L 7.40625 -3.96875 L 11.953125 -3.96875 L 11.203125 0 Z M 7.0625 0 "/></g></g></g><g fill="#6b6969" fill-opacity="1"><g transform="translate(517.786546, 59.704495)"><g><path d="M 5.015625 0.703125 C 4.078125 0.703125 3.347656 0.503906 2.828125 0.109375 C 2.304688 -0.273438 2.046875 -0.859375 2.046875 -1.640625 C 2.046875 -1.910156 2.0625 -2.226562 2.09375 -2.59375 C 2.132812 -2.96875 2.195312 -3.304688 2.28125 -3.609375 C 2.4375 -4.390625 2.773438 -5.117188 3.296875 -5.796875 C 3.816406 -6.484375 4.738281 -6.828125 6.0625 -6.828125 C 7 -6.828125 7.726562 -6.628906 8.25 -6.234375 C 8.78125 -5.847656 9.046875 -5.265625 9.046875 -4.484375 C 9.046875 -4.210938 9.023438 -3.890625 8.984375 -3.515625 C 8.941406 -3.148438 8.882812 -2.816406 8.8125 -2.515625 C 8.726562 -2.117188 8.609375 -1.726562 8.453125 -1.34375 C 8.296875 -0.957031 8.070312 -0.617188 7.78125 -0.328125 C 7.488281 -0.0351562 7.117188 0.207031 6.671875 0.40625 C 6.222656 0.601562 5.671875 0.703125 5.015625 0.703125 Z M 5.015625 0.703125 "/></g></g></g><g fill="#6b6969" fill-opacity="1"><g transform="translate(534.291392, 59.704495)"><g/></g></g><g fill="#6b6969" fill-opacity="1"><g transform="translate(548.638478, 59.704495)"><g><path d="M 2.28125 0 L 10.4375 -40.71875 L 34.40625 -40.71875 L 33.53125 -36.515625 L 14.34375 -36.515625 L 11.609375 -22.75 L 28.875 -22.75 L 28.0625 -18.546875 L 10.734375 -18.546875 L 7.875 -4.203125 L 28.0625 -4.203125 L 27.234375 0 Z M 2.28125 0 "/></g></g></g><g fill="#6b6969" fill-opacity="1"><g transform="translate(582.172868, 59.704495)"><g><path d="M -1.640625 0 L 12.015625 -15.578125 L 4.671875 -30.09375 L 9.5625 -30.09375 L 14.984375 -18.546875 L 15.28125 -18.546875 L 25.078125 -30.09375 L 30.21875 -30.09375 L 17.15625 -15.171875 L 25.078125 0 L 20.1875 0 L 14.171875 -12.25 L 13.875 -12.25 L 3.5 0 Z M -1.640625 0 "/></g></g></g><g fill="#6b6969" fill-opacity="1"><g transform="translate(610.866665, 59.704495)"><g><path d="M 14.234375 0.703125 C 10.617188 0.703125 7.816406 -0.363281 5.828125 -2.5 C 3.847656 -4.644531 2.859375 -7.78125 2.859375 -11.90625 C 2.859375 -14.382812 3.238281 -16.757812 4 -19.03125 C 4.757812 -21.3125 5.828125 -23.328125 7.203125 -25.078125 C 8.585938 -26.828125 10.238281 -28.21875 12.15625 -29.25 C 14.082031 -30.28125 16.234375 -30.796875 18.609375 -30.796875 C 19.890625 -30.796875 21.113281 -30.628906 22.28125 -30.296875 C 23.445312 -29.972656 24.476562 -29.476562 25.375 -28.8125 C 26.269531 -28.15625 26.976562 -27.320312 27.5 -26.3125 C 28.03125 -25.300781 28.296875 -24.113281 28.296875 -22.75 C 28.296875 -19.445312 26.59375 -16.992188 23.1875 -15.390625 C 19.78125 -13.796875 14.5625 -12.960938 7.53125 -12.890625 C 7.445312 -12.460938 7.394531 -12.023438 7.375 -11.578125 C 7.351562 -11.128906 7.34375 -10.75 7.34375 -10.4375 C 7.34375 -8.300781 7.957031 -6.582031 9.1875 -5.28125 C 10.414062 -3.976562 12.195312 -3.328125 14.53125 -3.328125 C 16.425781 -3.328125 18.140625 -3.765625 19.671875 -4.640625 C 21.210938 -5.515625 22.566406 -6.671875 23.734375 -8.109375 L 26.65625 -5.484375 C 24.789062 -3.191406 22.796875 -1.585938 20.671875 -0.671875 C 18.554688 0.242188 16.410156 0.703125 14.234375 0.703125 Z M 18.140625 -26.953125 C 16.972656 -26.953125 15.851562 -26.738281 14.78125 -26.3125 C 13.71875 -25.882812 12.765625 -25.289062 11.921875 -24.53125 C 11.085938 -23.769531 10.367188 -22.832031 9.765625 -21.71875 C 9.160156 -20.613281 8.722656 -19.398438 8.453125 -18.078125 L 8.109375 -16.390625 C 11.335938 -16.503906 13.960938 -16.707031 15.984375 -17 C 18.003906 -17.289062 19.585938 -17.695312 20.734375 -18.21875 C 21.878906 -18.75 22.65625 -19.382812 23.0625 -20.125 C 23.476562 -20.863281 23.6875 -21.757812 23.6875 -22.8125 C 23.6875 -23.625 23.53125 -24.289062 23.21875 -24.8125 C 22.90625 -25.34375 22.492188 -25.765625 21.984375 -26.078125 C 21.484375 -26.390625 20.890625 -26.613281 20.203125 -26.75 C 19.523438 -26.882812 18.835938 -26.953125 18.140625 -26.953125 Z M 18.140625 -26.953125 "/></g></g></g><g fill="#6b6969" fill-opacity="1"><g transform="translate(641.251758, 59.704495)"><g><path d="M 13.765625 0.703125 C 12.054688 0.703125 10.53125 0.410156 9.1875 -0.171875 C 7.84375 -0.753906 6.703125 -1.585938 5.765625 -2.671875 C 4.835938 -3.765625 4.117188 -5.0625 3.609375 -6.5625 C 3.109375 -8.0625 2.859375 -9.742188 2.859375 -11.609375 C 2.859375 -14.210938 3.195312 -16.679688 3.875 -19.015625 C 4.5625 -21.347656 5.546875 -23.390625 6.828125 -25.140625 C 8.109375 -26.890625 9.648438 -28.269531 11.453125 -29.28125 C 13.265625 -30.289062 15.316406 -30.796875 17.609375 -30.796875 C 20.296875 -30.796875 22.484375 -30.132812 24.171875 -28.8125 C 25.867188 -27.488281 27.007812 -25.796875 27.59375 -23.734375 L 23.859375 -22.046875 C 22.847656 -25.191406 20.726562 -26.765625 17.5 -26.765625 C 15.082031 -26.765625 13.125 -26.003906 11.625 -24.484375 C 10.132812 -22.972656 9.117188 -20.878906 8.578125 -18.203125 L 7.578125 -13.296875 C 7.503906 -12.867188 7.445312 -12.410156 7.40625 -11.921875 C 7.363281 -11.441406 7.34375 -11.023438 7.34375 -10.671875 C 7.34375 -8.492188 7.90625 -6.722656 9.03125 -5.359375 C 10.164062 -4.003906 11.898438 -3.328125 14.234375 -3.328125 C 15.710938 -3.328125 17.0625 -3.742188 18.28125 -4.578125 C 19.507812 -5.410156 20.726562 -6.957031 21.9375 -9.21875 L 25.484375 -7.46875 C 24.242188 -4.863281 22.628906 -2.847656 20.640625 -1.421875 C 18.660156 -0.00390625 16.367188 0.703125 13.765625 0.703125 Z M 13.765625 0.703125 "/></g></g></g><g fill="#6b6969" fill-opacity="1"><g transform="translate(670.295561, 59.704495)"><g><path d="M 12.3125 -30.09375 L 8.578125 -11.546875 C 8.460938 -10.960938 8.382812 -10.390625 8.34375 -9.828125 C 8.300781 -9.265625 8.28125 -8.804688 8.28125 -8.453125 C 8.28125 -6.785156 8.617188 -5.523438 9.296875 -4.671875 C 9.984375 -3.816406 11.144531 -3.390625 12.78125 -3.390625 C 14.832031 -3.390625 16.640625 -4.1875 18.203125 -5.78125 C 19.285156 -6.90625 20.15625 -8.15625 20.8125 -9.53125 C 21.476562 -10.914062 21.929688 -12.171875 22.171875 -13.296875 L 25.546875 -30.09375 L 30.03125 -30.09375 L 24.796875 -3.96875 L 29.046875 -3.96875 L 28.296875 0 L 24.203125 0 C 22.921875 0 21.957031 -0.335938 21.3125 -1.015625 C 20.675781 -1.703125 20.359375 -2.585938 20.359375 -3.671875 C 20.359375 -4.066406 20.4375 -4.628906 20.59375 -5.359375 L 20.703125 -5.953125 L 20.421875 -5.953125 C 19.367188 -3.660156 18.125 -1.976562 16.6875 -0.90625 C 15.25 0.164062 13.476562 0.703125 11.375 0.703125 C 8.8125 0.703125 6.882812 -0.0351562 5.59375 -1.515625 C 4.3125 -2.992188 3.671875 -5.035156 3.671875 -7.640625 C 3.671875 -8.179688 3.695312 -8.78125 3.75 -9.4375 C 3.8125 -10.101562 3.921875 -10.804688 4.078125 -11.546875 L 7.8125 -30.09375 Z M 12.3125 -30.09375 "/></g></g></g><g fill="#6b6969" fill-opacity="1"><g transform="translate(703.65501, 59.704495)"><g><path d="M 7.9375 0 C 6.570312 0 5.546875 -0.335938 4.859375 -1.015625 C 4.179688 -1.703125 3.84375 -2.585938 3.84375 -3.671875 C 3.84375 -4.023438 3.90625 -4.492188 4.03125 -5.078125 L 8.28125 -26.125 L 3.84375 -26.125 L 4.609375 -30.09375 L 6.875 -30.09375 C 7.96875 -30.09375 8.695312 -30.304688 9.0625 -30.734375 C 9.4375 -31.160156 9.722656 -31.898438 9.921875 -32.953125 L 11.03125 -38.4375 L 15.171875 -38.4375 L 13.53125 -30.09375 L 19.890625 -30.09375 L 19.125 -26.125 L 12.78125 -26.125 L 8.28125 -3.96875 L 14.171875 -3.96875 L 13.421875 0 Z M 7.9375 0 "/></g></g></g><g fill="#6b6969" fill-opacity="1"><g transform="translate(722.609331, 59.704495)"><g><path d="M 14.234375 0.703125 C 10.617188 0.703125 7.816406 -0.363281 5.828125 -2.5 C 3.847656 -4.644531 2.859375 -7.78125 2.859375 -11.90625 C 2.859375 -14.382812 3.238281 -16.757812 4 -19.03125 C 4.757812 -21.3125 5.828125 -23.328125 7.203125 -25.078125 C 8.585938 -26.828125 10.238281 -28.21875 12.15625 -29.25 C 14.082031 -30.28125 16.234375 -30.796875 18.609375 -30.796875 C 19.890625 -30.796875 21.113281 -30.628906 22.28125 -30.296875 C 23.445312 -29.972656 24.476562 -29.476562 25.375 -28.8125 C 26.269531 -28.15625 26.976562 -27.320312 27.5 -26.3125 C 28.03125 -25.300781 28.296875 -24.113281 28.296875 -22.75 C 28.296875 -19.445312 26.59375 -16.992188 23.1875 -15.390625 C 19.78125 -13.796875 14.5625 -12.960938 7.53125 -12.890625 C 7.445312 -12.460938 7.394531 -12.023438 7.375 -11.578125 C 7.351562 -11.128906 7.34375 -10.75 7.34375 -10.4375 C 7.34375 -8.300781 7.957031 -6.582031 9.1875 -5.28125 C 10.414062 -3.976562 12.195312 -3.328125 14.53125 -3.328125 C 16.425781 -3.328125 18.140625 -3.765625 19.671875 -4.640625 C 21.210938 -5.515625 22.566406 -6.671875 23.734375 -8.109375 L 26.65625 -5.484375 C 24.789062 -3.191406 22.796875 -1.585938 20.671875 -0.671875 C 18.554688 0.242188 16.410156 0.703125 14.234375 0.703125 Z M 18.140625 -26.953125 C 16.972656 -26.953125 15.851562 -26.738281 14.78125 -26.3125 C 13.71875 -25.882812 12.765625 -25.289062 11.921875 -24.53125 C 11.085938 -23.769531 10.367188 -22.832031 9.765625 -21.71875 C 9.160156 -20.613281 8.722656 -19.398438 8.453125 -18.078125 L 8.109375 -16.390625 C 11.335938 -16.503906 13.960938 -16.707031 15.984375 -17 C 18.003906 -17.289062 19.585938 -17.695312 20.734375 -18.21875 C 21.878906 -18.75 22.65625 -19.382812 23.0625 -20.125 C 23.476562 -20.863281 23.6875 -21.757812 23.6875 -22.8125 C 23.6875 -23.625 23.53125 -24.289062 23.21875 -24.8125 C 22.90625 -25.34375 22.492188 -25.765625 21.984375 -26.078125 C 21.484375 -26.390625 20.890625 -26.613281 20.203125 -26.75 C 19.523438 -26.882812 18.835938 -26.953125 18.140625 -26.953125 Z M 18.140625 -26.953125 "/></g></g></g><g fill="#6b6969" fill-opacity="1"><g transform="translate(752.994486, 59.704495)"><g/></g></g><g fill="#6b6969" fill-opacity="1"><g transform="translate(767.341509, 59.704495)"><g><path d="M 25.484375 0 C 24.160156 0 23.175781 -0.328125 22.53125 -0.984375 C 21.894531 -1.648438 21.578125 -2.523438 21.578125 -3.609375 C 21.578125 -4.078125 21.632812 -4.601562 21.75 -5.1875 L 22.046875 -6.53125 L 21.875 -6.53125 C 20.625 -4 19.238281 -2.160156 17.71875 -1.015625 C 16.207031 0.128906 14.34375 0.703125 12.125 0.703125 C 9.363281 0.703125 7.144531 -0.316406 5.46875 -2.359375 C 3.800781 -4.398438 2.96875 -7.210938 2.96875 -10.796875 C 2.96875 -13.003906 3.269531 -15.285156 3.875 -17.640625 C 4.476562 -19.992188 5.382812 -22.148438 6.59375 -24.109375 C 7.800781 -26.078125 9.328125 -27.679688 11.171875 -28.921875 C 13.015625 -30.171875 15.179688 -30.796875 17.671875 -30.796875 C 18.566406 -30.796875 19.441406 -30.675781 20.296875 -30.4375 C 21.148438 -30.207031 21.925781 -29.859375 22.625 -29.390625 C 23.332031 -28.929688 23.9375 -28.347656 24.4375 -27.640625 C 24.945312 -26.941406 25.316406 -26.128906 25.546875 -25.203125 L 25.78125 -25.203125 L 26.765625 -30.09375 L 31.265625 -30.09375 L 26.015625 -3.96875 L 30.265625 -3.96875 L 29.515625 0 Z M 13.296875 -3.390625 C 14.617188 -3.390625 15.785156 -3.648438 16.796875 -4.171875 C 17.804688 -4.691406 18.757812 -5.421875 19.65625 -6.359375 C 20.664062 -7.367188 21.472656 -8.457031 22.078125 -9.625 C 22.679688 -10.789062 23.140625 -12.113281 23.453125 -13.59375 L 24.671875 -19.71875 C 24.867188 -20.644531 24.890625 -21.523438 24.734375 -22.359375 C 24.578125 -23.203125 24.222656 -23.941406 23.671875 -24.578125 C 23.128906 -25.222656 22.390625 -25.738281 21.453125 -26.125 C 20.523438 -26.519531 19.398438 -26.71875 18.078125 -26.71875 C 15.628906 -26.71875 13.609375 -25.921875 12.015625 -24.328125 C 10.421875 -22.734375 9.332031 -20.476562 8.75 -17.5625 L 7.875 -13.1875 C 7.675781 -12.09375 7.578125 -11.097656 7.578125 -10.203125 C 7.578125 -8.140625 8.0625 -6.488281 9.03125 -5.25 C 10.007812 -4.007812 11.429688 -3.390625 13.296875 -3.390625 Z M 13.296875 -3.390625 "/></g></g></g><g fill="#6b6969" fill-opacity="1"><g transform="translate(801.925665, 59.704495)"><g/></g></g><g fill="#6b6969" fill-opacity="1"><g transform="translate(816.27275, 59.704495)"><g><path d="M 14.234375 0.703125 C 10.617188 0.703125 7.816406 -0.363281 5.828125 -2.5 C 3.847656 -4.644531 2.859375 -7.78125 2.859375 -11.90625 C 2.859375 -14.382812 3.238281 -16.757812 4 -19.03125 C 4.757812 -21.3125 5.828125 -23.328125 7.203125 -25.078125 C 8.585938 -26.828125 10.238281 -28.21875 12.15625 -29.25 C 14.082031 -30.28125 16.234375 -30.796875 18.609375 -30.796875 C 19.890625 -30.796875 21.113281 -30.628906 22.28125 -30.296875 C 23.445312 -29.972656 24.476562 -29.476562 25.375 -28.8125 C 26.269531 -28.15625 26.976562 -27.320312 27.5 -26.3125 C 28.03125 -25.300781 28.296875 -24.113281 28.296875 -22.75 C 28.296875 -19.445312 26.59375 -16.992188 23.1875 -15.390625 C 19.78125 -13.796875 14.5625 -12.960938 7.53125 -12.890625 C 7.445312 -12.460938 7.394531 -12.023438 7.375 -11.578125 C 7.351562 -11.128906 7.34375 -10.75 7.34375 -10.4375 C 7.34375 -8.300781 7.957031 -6.582031 9.1875 -5.28125 C 10.414062 -3.976562 12.195312 -3.328125 14.53125 -3.328125 C 16.425781 -3.328125 18.140625 -3.765625 19.671875 -4.640625 C 21.210938 -5.515625 22.566406 -6.671875 23.734375 -8.109375 L 26.65625 -5.484375 C 24.789062 -3.191406 22.796875 -1.585938 20.671875 -0.671875 C 18.554688 0.242188 16.410156 0.703125 14.234375 0.703125 Z M 18.140625 -26.953125 C 16.972656 -26.953125 15.851562 -26.738281 14.78125 -26.3125 C 13.71875 -25.882812 12.765625 -25.289062 11.921875 -24.53125 C 11.085938 -23.769531 10.367188 -22.832031 9.765625 -21.71875 C 9.160156 -20.613281 8.722656 -19.398438 8.453125 -18.078125 L 8.109375 -16.390625 C 11.335938 -16.503906 13.960938 -16.707031 15.984375 -17 C 18.003906 -17.289062 19.585938 -17.695312 20.734375 -18.21875 C 21.878906 -18.75 22.65625 -19.382812 23.0625 -20.125 C 23.476562 -20.863281 23.6875 -21.757812 23.6875 -22.8125 C 23.6875 -23.625 23.53125 -24.289062 23.21875 -24.8125 C 22.90625 -25.34375 22.492188 -25.765625 21.984375 -26.078125 C 21.484375 -26.390625 20.890625 -26.613281 20.203125 -26.75 C 19.523438 -26.882812 18.835938 -26.953125 18.140625 -26.953125 Z M 18.140625 -26.953125 "/></g></g></g><g fill="#6b6969" fill-opacity="1"><g transform="translate(846.657844, 59.704495)"><g><path d="M 12.1875 0.703125 C 9.851562 0.703125 7.675781 0.226562 5.65625 -0.71875 C 3.632812 -1.675781 2.019531 -3.03125 0.8125 -4.78125 L 3.90625 -7.53125 C 4.957031 -6.125 6.160156 -5.050781 7.515625 -4.3125 C 8.878906 -3.570312 10.4375 -3.203125 12.1875 -3.203125 C 14.175781 -3.203125 15.8125 -3.675781 17.09375 -4.625 C 18.375 -5.582031 19.015625 -6.992188 19.015625 -8.859375 C 19.015625 -9.867188 18.710938 -10.734375 18.109375 -11.453125 C 17.503906 -12.179688 16.328125 -12.71875 14.578125 -13.0625 L 12.3125 -13.53125 C 11.175781 -13.757812 10.113281 -14.054688 9.125 -14.421875 C 8.132812 -14.796875 7.28125 -15.285156 6.5625 -15.890625 C 5.84375 -16.492188 5.28125 -17.234375 4.875 -18.109375 C 4.46875 -18.984375 4.265625 -20.046875 4.265625 -21.296875 C 4.265625 -22.535156 4.484375 -23.726562 4.921875 -24.875 C 5.367188 -26.019531 6.0625 -27.03125 7 -27.90625 C 7.9375 -28.78125 9.101562 -29.476562 10.5 -30 C 11.894531 -30.53125 13.53125 -30.796875 15.40625 -30.796875 C 17.613281 -30.796875 19.515625 -30.414062 21.109375 -29.65625 C 22.703125 -28.894531 24.066406 -27.796875 25.203125 -26.359375 L 22.109375 -23.625 C 21.441406 -24.550781 20.546875 -25.328125 19.421875 -25.953125 C 18.296875 -26.578125 16.835938 -26.890625 15.046875 -26.890625 C 12.828125 -26.890625 11.203125 -26.398438 10.171875 -25.421875 C 9.140625 -24.453125 8.625 -23.210938 8.625 -21.703125 C 8.625 -20.648438 8.925781 -19.78125 9.53125 -19.09375 C 10.132812 -18.414062 11.289062 -17.90625 13 -17.5625 L 15.28125 -17.09375 C 16.488281 -16.851562 17.585938 -16.539062 18.578125 -16.15625 C 19.566406 -15.769531 20.410156 -15.265625 21.109375 -14.640625 C 21.816406 -14.015625 22.363281 -13.253906 22.75 -12.359375 C 23.132812 -11.472656 23.328125 -10.40625 23.328125 -9.15625 C 23.328125 -7.632812 23.046875 -6.257812 22.484375 -5.03125 C 21.921875 -3.8125 21.144531 -2.785156 20.15625 -1.953125 C 19.164062 -1.117188 17.988281 -0.46875 16.625 0 C 15.257812 0.46875 13.78125 0.703125 12.1875 0.703125 Z M 12.1875 0.703125 "/></g></g></g><g fill="#6b6969" fill-opacity="1"><g transform="translate(873.718638, 59.704495)"><g><path d="M 7.9375 0 C 6.570312 0 5.546875 -0.335938 4.859375 -1.015625 C 4.179688 -1.703125 3.84375 -2.585938 3.84375 -3.671875 C 3.84375 -4.023438 3.90625 -4.492188 4.03125 -5.078125 L 8.28125 -26.125 L 3.84375 -26.125 L 4.609375 -30.09375 L 6.875 -30.09375 C 7.96875 -30.09375 8.695312 -30.304688 9.0625 -30.734375 C 9.4375 -31.160156 9.722656 -31.898438 9.921875 -32.953125 L 11.03125 -38.4375 L 15.171875 -38.4375 L 13.53125 -30.09375 L 19.890625 -30.09375 L 19.125 -26.125 L 12.78125 -26.125 L 8.28125 -3.96875 L 14.171875 -3.96875 L 13.421875 0 Z M 7.9375 0 "/></g></g></g><g fill="#6b6969" fill-opacity="1"><g transform="translate(892.964546, 59.704495)"><g><path d="M 2.09375 0 L 8.171875 -30.09375 L 12.65625 -30.09375 L 11.375 -24.09375 L 11.671875 -24.09375 C 12.054688 -24.832031 12.519531 -25.5625 13.0625 -26.28125 C 13.601562 -27 14.234375 -27.640625 14.953125 -28.203125 C 15.679688 -28.765625 16.507812 -29.21875 17.4375 -29.5625 C 18.375 -29.914062 19.460938 -30.09375 20.703125 -30.09375 L 22.578125 -30.09375 L 21.703125 -25.484375 L 19.59375 -25.484375 C 18.195312 -25.484375 16.960938 -25.28125 15.890625 -24.875 C 14.828125 -24.46875 13.90625 -23.914062 13.125 -23.21875 C 12.34375 -22.519531 11.707031 -21.710938 11.21875 -20.796875 C 10.738281 -19.878906 10.398438 -18.914062 10.203125 -17.90625 L 6.59375 0 Z M 2.09375 0 "/></g></g></g><g fill="#6b6969" fill-opacity="1"><g transform="translate(914.1934, 59.704495)"><g><path d="M 25.484375 0 C 24.160156 0 23.175781 -0.328125 22.53125 -0.984375 C 21.894531 -1.648438 21.578125 -2.523438 21.578125 -3.609375 C 21.578125 -4.078125 21.632812 -4.601562 21.75 -5.1875 L 22.046875 -6.53125 L 21.875 -6.53125 C 20.625 -4 19.238281 -2.160156 17.71875 -1.015625 C 16.207031 0.128906 14.34375 0.703125 12.125 0.703125 C 9.363281 0.703125 7.144531 -0.316406 5.46875 -2.359375 C 3.800781 -4.398438 2.96875 -7.210938 2.96875 -10.796875 C 2.96875 -13.003906 3.269531 -15.285156 3.875 -17.640625 C 4.476562 -19.992188 5.382812 -22.148438 6.59375 -24.109375 C 7.800781 -26.078125 9.328125 -27.679688 11.171875 -28.921875 C 13.015625 -30.171875 15.179688 -30.796875 17.671875 -30.796875 C 18.566406 -30.796875 19.441406 -30.675781 20.296875 -30.4375 C 21.148438 -30.207031 21.925781 -29.859375 22.625 -29.390625 C 23.332031 -28.929688 23.9375 -28.347656 24.4375 -27.640625 C 24.945312 -26.941406 25.316406 -26.128906 25.546875 -25.203125 L 25.78125 -25.203125 L 26.765625 -30.09375 L 31.265625 -30.09375 L 26.015625 -3.96875 L 30.265625 -3.96875 L 29.515625 0 Z M 13.296875 -3.390625 C 14.617188 -3.390625 15.785156 -3.648438 16.796875 -4.171875 C 17.804688 -4.691406 18.757812 -5.421875 19.65625 -6.359375 C 20.664062 -7.367188 21.472656 -8.457031 22.078125 -9.625 C 22.679688 -10.789062 23.140625 -12.113281 23.453125 -13.59375 L 24.671875 -19.71875 C 24.867188 -20.644531 24.890625 -21.523438 24.734375 -22.359375 C 24.578125 -23.203125 24.222656 -23.941406 23.671875 -24.578125 C 23.128906 -25.222656 22.390625 -25.738281 21.453125 -26.125 C 20.523438 -26.519531 19.398438 -26.71875 18.078125 -26.71875 C 15.628906 -26.71875 13.609375 -25.921875 12.015625 -24.328125 C 10.421875 -22.734375 9.332031 -20.476562 8.75 -17.5625 L 7.875 -13.1875 C 7.675781 -12.09375 7.578125 -11.097656 7.578125 -10.203125 C 7.578125 -8.140625 8.0625 -6.488281 9.03125 -5.25 C 10.007812 -4.007812 11.429688 -3.390625 13.296875 -3.390625 Z M 13.296875 -3.390625 "/></g></g></g><g fill="#6b6969" fill-opacity="1"><g transform="translate(948.777555, 59.704495)"><g><path d="M 7.9375 0 C 6.570312 0 5.546875 -0.335938 4.859375 -1.015625 C 4.179688 -1.703125 3.84375 -2.585938 3.84375 -3.671875 C 3.84375 -4.023438 3.90625 -4.492188 4.03125 -5.078125 L 8.28125 -26.125 L 3.84375 -26.125 L 4.609375 -30.09375 L 6.875 -30.09375 C 7.96875 -30.09375 8.695312 -30.304688 9.0625 -30.734375 C 9.4375 -31.160156 9.722656 -31.898438 9.921875 -32.953125 L 11.03125 -38.4375 L 15.171875 -38.4375 L 13.53125 -30.09375 L 19.890625 -30.09375 L 19.125 -26.125 L 12.78125 -26.125 L 8.28125 -3.96875 L 14.171875 -3.96875 L 13.421875 0 Z M 7.9375 0 "/></g></g></g><g fill="#6b6969" fill-opacity="1"><g transform="translate(967.731876, 59.704495)"><g><path d="M 14.234375 0.703125 C 10.617188 0.703125 7.816406 -0.363281 5.828125 -2.5 C 3.847656 -4.644531 2.859375 -7.78125 2.859375 -11.90625 C 2.859375 -14.382812 3.238281 -16.757812 4 -19.03125 C 4.757812 -21.3125 5.828125 -23.328125 7.203125 -25.078125 C 8.585938 -26.828125 10.238281 -28.21875 12.15625 -29.25 C 14.082031 -30.28125 16.234375 -30.796875 18.609375 -30.796875 C 19.890625 -30.796875 21.113281 -30.628906 22.28125 -30.296875 C 23.445312 -29.972656 24.476562 -29.476562 25.375 -28.8125 C 26.269531 -28.15625 26.976562 -27.320312 27.5 -26.3125 C 28.03125 -25.300781 28.296875 -24.113281 28.296875 -22.75 C 28.296875 -19.445312 26.59375 -16.992188 23.1875 -15.390625 C 19.78125 -13.796875 14.5625 -12.960938 7.53125 -12.890625 C 7.445312 -12.460938 7.394531 -12.023438 7.375 -11.578125 C 7.351562 -11.128906 7.34375 -10.75 7.34375 -10.4375 C 7.34375 -8.300781 7.957031 -6.582031 9.1875 -5.28125 C 10.414062 -3.976562 12.195312 -3.328125 14.53125 -3.328125 C 16.425781 -3.328125 18.140625 -3.765625 19.671875 -4.640625 C 21.210938 -5.515625 22.566406 -6.671875 23.734375 -8.109375 L 26.65625 -5.484375 C 24.789062 -3.191406 22.796875 -1.585938 20.671875 -0.671875 C 18.554688 0.242188 16.410156 0.703125 14.234375 0.703125 Z M 18.140625 -26.953125 C 16.972656 -26.953125 15.851562 -26.738281 14.78125 -26.3125 C 13.71875 -25.882812 12.765625 -25.289062 11.921875 -24.53125 C 11.085938 -23.769531 10.367188 -22.832031 9.765625 -21.71875 C 9.160156 -20.613281 8.722656 -19.398438 8.453125 -18.078125 L 8.109375 -16.390625 C 11.335938 -16.503906 13.960938 -16.707031 15.984375 -17 C 18.003906 -17.289062 19.585938 -17.695312 20.734375 -18.21875 C 21.878906 -18.75 22.65625 -19.382812 23.0625 -20.125 C 23.476562 -20.863281 23.6875 -21.757812 23.6875 -22.8125 C 23.6875 -23.625 23.53125 -24.289062 23.21875 -24.8125 C 22.90625 -25.34375 22.492188 -25.765625 21.984375 -26.078125 C 21.484375 -26.390625 20.890625 -26.613281 20.203125 -26.75 C 19.523438 -26.882812 18.835938 -26.953125 18.140625 -26.953125 Z M 20.296875 -34.125 L 17.5 -35.578125 L 23.5625 -45.5 L 27.53125 -43.390625 Z M 20.296875 -34.125 "/></g></g></g><g fill="#6b6969" fill-opacity="1"><g transform="translate(998.116969, 59.704495)"><g><path d="M 26.953125 2.15625 C 26.953125 3.476562 26.695312 4.75 26.1875 5.96875 C 25.6875 7.195312 24.832031 8.285156 23.625 9.234375 C 22.414062 10.191406 20.8125 10.953125 18.8125 11.515625 C 16.8125 12.078125 14.289062 12.359375 11.25 12.359375 C 3.164062 12.359375 -0.875 10.144531 -0.875 5.71875 C -0.875 4.164062 -0.378906 2.8125 0.609375 1.65625 C 1.597656 0.507812 3.085938 -0.351562 5.078125 -0.9375 L 5.1875 -1.40625 C 3.550781 -2.144531 2.734375 -3.367188 2.734375 -5.078125 C 2.734375 -6.515625 3.226562 -7.71875 4.21875 -8.6875 C 5.21875 -9.664062 6.75 -10.367188 8.8125 -10.796875 L 8.859375 -11.203125 C 6.140625 -12.640625 4.78125 -15.164062 4.78125 -18.78125 C 4.78125 -20.488281 5.09375 -22.082031 5.71875 -23.5625 C 6.34375 -25.039062 7.21875 -26.3125 8.34375 -27.375 C 9.46875 -28.445312 10.804688 -29.285156 12.359375 -29.890625 C 13.921875 -30.492188 15.632812 -30.796875 17.5 -30.796875 C 19.71875 -30.796875 21.582031 -30.367188 23.09375 -29.515625 L 23.21875 -30.21875 C 23.40625 -31.414062 23.828125 -32.375 24.484375 -33.09375 C 25.148438 -33.820312 26.109375 -34.1875 27.359375 -34.1875 L 31.609375 -34.1875 L 30.859375 -30.15625 L 25.671875 -30.15625 L 25.203125 -27.765625 C 26.441406 -26.210938 27.0625 -24.285156 27.0625 -21.984375 C 27.0625 -20.273438 26.738281 -18.703125 26.09375 -17.265625 C 25.457031 -15.828125 24.566406 -14.570312 23.421875 -13.5 C 22.273438 -12.4375 20.90625 -11.601562 19.3125 -11 C 17.71875 -10.394531 15.96875 -10.09375 14.0625 -10.09375 C 13.632812 -10.09375 13.253906 -10.101562 12.921875 -10.125 C 12.585938 -10.144531 12.207031 -10.191406 11.78125 -10.265625 C 10.382812 -9.992188 9.238281 -9.59375 8.34375 -9.0625 C 7.445312 -8.539062 7 -7.773438 7 -6.765625 C 7 -5.328125 8.320312 -4.609375 10.96875 -4.609375 L 17.671875 -4.609375 C 21.015625 -4.609375 23.394531 -4.023438 24.8125 -2.859375 C 26.238281 -1.691406 26.953125 -0.0195312 26.953125 2.15625 Z M 22.28125 3.09375 C 22.28125 2.039062 21.9375 1.203125 21.25 0.578125 C 20.570312 -0.0351562 19.300781 -0.34375 17.4375 -0.34375 L 7.109375 -0.34375 C 4.773438 0.664062 3.609375 2.238281 3.609375 4.375 C 3.609375 5 3.71875 5.570312 3.9375 6.09375 C 4.15625 6.613281 4.503906 7.066406 4.984375 7.453125 C 5.472656 7.847656 6.113281 8.148438 6.90625 8.359375 C 7.707031 8.578125 8.710938 8.6875 9.921875 8.6875 L 12.65625 8.6875 C 16.039062 8.6875 18.488281 8.171875 20 7.140625 C 21.519531 6.109375 22.28125 4.757812 22.28125 3.09375 Z M 14.75 -13.65625 C 16.894531 -13.65625 18.539062 -14.160156 19.6875 -15.171875 C 20.832031 -16.179688 21.582031 -17.5625 21.9375 -19.3125 C 22.125 -20.351562 22.253906 -21.066406 22.328125 -21.453125 C 22.410156 -21.847656 22.453125 -22.222656 22.453125 -22.578125 C 22.453125 -23.972656 22.003906 -25.085938 21.109375 -25.921875 C 20.210938 -26.765625 18.832031 -27.1875 16.96875 -27.1875 C 14.832031 -27.1875 13.191406 -26.671875 12.046875 -25.640625 C 10.898438 -24.609375 10.148438 -23.21875 9.796875 -21.46875 C 9.597656 -20.414062 9.460938 -19.691406 9.390625 -19.296875 C 9.316406 -18.910156 9.28125 -18.546875 9.28125 -18.203125 C 9.28125 -16.796875 9.722656 -15.6875 10.609375 -14.875 C 11.503906 -14.0625 12.882812 -13.65625 14.75 -13.65625 Z M 14.75 -13.65625 "/></g></g></g><g fill="#6b6969" fill-opacity="1"><g transform="translate(1028.327122, 59.704495)"><g><path d="M 12.015625 -37.15625 C 11.117188 -37.15625 10.484375 -37.359375 10.109375 -37.765625 C 9.742188 -38.171875 9.5625 -38.648438 9.5625 -39.203125 C 9.5625 -39.316406 9.570312 -39.476562 9.59375 -39.6875 C 9.613281 -39.90625 9.679688 -40.285156 9.796875 -40.828125 C 9.953125 -41.566406 10.269531 -42.140625 10.75 -42.546875 C 11.238281 -42.953125 11.972656 -43.15625 12.953125 -43.15625 C 13.847656 -43.15625 14.476562 -42.953125 14.84375 -42.546875 C 15.21875 -42.140625 15.40625 -41.664062 15.40625 -41.125 C 15.40625 -41.007812 15.394531 -40.84375 15.375 -40.625 C 15.351562 -40.414062 15.285156 -40.035156 15.171875 -39.484375 C 15.015625 -38.742188 14.691406 -38.171875 14.203125 -37.765625 C 13.710938 -37.359375 12.984375 -37.15625 12.015625 -37.15625 Z M 7.0625 0 C 5.695312 0 4.671875 -0.335938 3.984375 -1.015625 C 3.304688 -1.703125 2.96875 -2.585938 2.96875 -3.671875 C 2.96875 -4.023438 3.03125 -4.492188 3.15625 -5.078125 L 8.171875 -30.09375 L 12.65625 -30.09375 L 7.40625 -3.96875 L 11.671875 -3.96875 L 10.90625 0 Z M 7.0625 0 "/></g></g></g><g fill="#6b6969" fill-opacity="1"><g transform="translate(1044.307149, 59.704495)"><g><path d="M 25.484375 0 C 24.160156 0 23.175781 -0.328125 22.53125 -0.984375 C 21.894531 -1.648438 21.578125 -2.523438 21.578125 -3.609375 C 21.578125 -4.078125 21.632812 -4.601562 21.75 -5.1875 L 22.046875 -6.53125 L 21.875 -6.53125 C 20.625 -4 19.238281 -2.160156 17.71875 -1.015625 C 16.207031 0.128906 14.34375 0.703125 12.125 0.703125 C 9.363281 0.703125 7.144531 -0.316406 5.46875 -2.359375 C 3.800781 -4.398438 2.96875 -7.210938 2.96875 -10.796875 C 2.96875 -13.003906 3.269531 -15.285156 3.875 -17.640625 C 4.476562 -19.992188 5.382812 -22.148438 6.59375 -24.109375 C 7.800781 -26.078125 9.328125 -27.679688 11.171875 -28.921875 C 13.015625 -30.171875 15.179688 -30.796875 17.671875 -30.796875 C 18.566406 -30.796875 19.441406 -30.675781 20.296875 -30.4375 C 21.148438 -30.207031 21.925781 -29.859375 22.625 -29.390625 C 23.332031 -28.929688 23.9375 -28.347656 24.4375 -27.640625 C 24.945312 -26.941406 25.316406 -26.128906 25.546875 -25.203125 L 25.78125 -25.203125 L 26.765625 -30.09375 L 31.265625 -30.09375 L 26.015625 -3.96875 L 30.265625 -3.96875 L 29.515625 0 Z M 13.296875 -3.390625 C 14.617188 -3.390625 15.785156 -3.648438 16.796875 -4.171875 C 17.804688 -4.691406 18.757812 -5.421875 19.65625 -6.359375 C 20.664062 -7.367188 21.472656 -8.457031 22.078125 -9.625 C 22.679688 -10.789062 23.140625 -12.113281 23.453125 -13.59375 L 24.671875 -19.71875 C 24.867188 -20.644531 24.890625 -21.523438 24.734375 -22.359375 C 24.578125 -23.203125 24.222656 -23.941406 23.671875 -24.578125 C 23.128906 -25.222656 22.390625 -25.738281 21.453125 -26.125 C 20.523438 -26.519531 19.398438 -26.71875 18.078125 -26.71875 C 15.628906 -26.71875 13.609375 -25.921875 12.015625 -24.328125 C 10.421875 -22.734375 9.332031 -20.476562 8.75 -17.5625 L 7.875 -13.1875 C 7.675781 -12.09375 7.578125 -11.097656 7.578125 -10.203125 C 7.578125 -8.140625 8.0625 -6.488281 9.03125 -5.25 C 10.007812 -4.007812 11.429688 -3.390625 13.296875 -3.390625 Z M 13.296875 -3.390625 "/></g></g></g><g fill="#6b6969" fill-opacity="1"><g transform="translate(1079.474541, 59.704495)"><g><path d="M 5.015625 0.703125 C 4.078125 0.703125 3.347656 0.503906 2.828125 0.109375 C 2.304688 -0.273438 2.046875 -0.859375 2.046875 -1.640625 C 2.046875 -1.910156 2.0625 -2.226562 2.09375 -2.59375 C 2.132812 -2.96875 2.195312 -3.304688 2.28125 -3.609375 C 2.4375 -4.390625 2.773438 -5.117188 3.296875 -5.796875 C 3.816406 -6.484375 4.738281 -6.828125 6.0625 -6.828125 C 7 -6.828125 7.726562 -6.628906 8.25 -6.234375 C 8.78125 -5.847656 9.046875 -5.265625 9.046875 -4.484375 C 9.046875 -4.210938 9.023438 -3.890625 8.984375 -3.515625 C 8.941406 -3.148438 8.882812 -2.816406 8.8125 -2.515625 C 8.726562 -2.117188 8.609375 -1.726562 8.453125 -1.34375 C 8.296875 -0.957031 8.070312 -0.617188 7.78125 -0.328125 C 7.488281 -0.0351562 7.117188 0.207031 6.671875 0.40625 C 6.222656 0.601562 5.671875 0.703125 5.015625 0.703125 Z M 5.015625 0.703125 "/></g></g></g></g></g></svg>